<mxfile host="app.diagrams.net" agent="Mozilla/5.0 (Macintosh; Intel Mac OS X 10_15_7) AppleWebKit/605.1.15 (KHTML, like Gecko) Version/18.1.1 Safari/605.1.15" version="27.2.0">
  <diagram name="Page-1" id="e68napSXXvT9S2W_36CS">
    <mxGraphModel dx="901" dy="606" grid="1" gridSize="10" guides="1" tooltips="1" connect="1" arrows="1" fold="1" page="1" pageScale="1" pageWidth="827" pageHeight="1169" math="0" shadow="0">
      <root>
        <mxCell id="0" />
        <mxCell id="1" parent="0" />
        <mxCell id="nHcH9ryGmNpIAkqK_KiS-18" value="" style="verticalLabelPosition=bottom;verticalAlign=top;html=1;shape=mxgraph.basic.rect;fillColor2=none;strokeWidth=1;size=20;indent=5;fillColor=none;dashed=1;" vertex="1" parent="1">
          <mxGeometry x="106" y="398" width="580" height="302" as="geometry" />
        </mxCell>
        <mxCell id="nHcH9ryGmNpIAkqK_KiS-1" value="Client/Investor" style="sketch=0;outlineConnect=0;fontColor=#232F3E;gradientColor=none;fillColor=light-dark(#FFD966,#FFD966);strokeColor=none;dashed=0;verticalLabelPosition=bottom;verticalAlign=top;align=center;html=1;fontSize=12;fontStyle=0;aspect=fixed;pointerEvents=1;shape=mxgraph.aws4.sagemaker_model;" vertex="1" parent="1">
          <mxGeometry x="154" y="445" width="78" height="78" as="geometry" />
        </mxCell>
        <mxCell id="nHcH9ryGmNpIAkqK_KiS-2" value="&lt;span style=&quot;color: rgba(0, 0, 0, 0);&quot;&gt;Analyst&lt;/span&gt;" style="sketch=0;outlineConnect=0;fontColor=#ffffff;fillColor=#1ba1e2;strokeColor=#006EAF;dashed=0;verticalLabelPosition=bottom;verticalAlign=top;align=center;html=1;fontSize=12;fontStyle=0;aspect=fixed;pointerEvents=1;shape=mxgraph.aws4.sagemaker_model;" vertex="1" parent="1">
          <mxGeometry x="557" y="442" width="78" height="78" as="geometry" />
        </mxCell>
        <mxCell id="nHcH9ryGmNpIAkqK_KiS-3" value="&lt;span style=&quot;color: rgba(0, 0, 0, 0);&quot;&gt;Editor&lt;/span&gt;" style="sketch=0;outlineConnect=0;fontColor=#ffffff;fillColor=#1ba1e2;strokeColor=light-dark(#006EAF,#FFFFFF);dashed=0;verticalLabelPosition=bottom;verticalAlign=top;align=center;html=1;fontSize=12;fontStyle=0;aspect=fixed;pointerEvents=1;shape=mxgraph.aws4.sagemaker_model;" vertex="1" parent="1">
          <mxGeometry x="558" y="573" width="78" height="78" as="geometry" />
        </mxCell>
        <mxCell id="nHcH9ryGmNpIAkqK_KiS-4" value="Writer" style="sketch=0;outlineConnect=0;fontColor=#232F3E;gradientColor=none;fillColor=#01A88D;strokeColor=none;dashed=0;verticalLabelPosition=bottom;verticalAlign=top;align=center;html=1;fontSize=12;fontStyle=0;aspect=fixed;pointerEvents=1;shape=mxgraph.aws4.sagemaker_model;" vertex="1" parent="1">
          <mxGeometry x="357" y="444" width="78" height="78" as="geometry" />
        </mxCell>
        <mxCell id="nHcH9ryGmNpIAkqK_KiS-7" value="" style="endArrow=block;dashed=1;html=1;rounded=0;endFill=1;startArrow=none;startFill=0;" edge="1" parent="1">
          <mxGeometry width="50" height="50" relative="1" as="geometry">
            <mxPoint x="550" y="478" as="sourcePoint" />
            <mxPoint x="445" y="478.65999999999997" as="targetPoint" />
          </mxGeometry>
        </mxCell>
        <mxCell id="nHcH9ryGmNpIAkqK_KiS-8" value="Feedback&lt;div&gt;&lt;br&gt;&lt;/div&gt;" style="edgeLabel;html=1;align=center;verticalAlign=middle;resizable=0;points=[];fontSize=12;" vertex="1" connectable="0" parent="nHcH9ryGmNpIAkqK_KiS-7">
          <mxGeometry x="-0.3252" y="1" relative="1" as="geometry">
            <mxPoint x="-15" y="17" as="offset" />
          </mxGeometry>
        </mxCell>
        <mxCell id="nHcH9ryGmNpIAkqK_KiS-9" value="" style="endArrow=block;dashed=1;html=1;rounded=0;endFill=1;startArrow=none;startFill=0;" edge="1" parent="1">
          <mxGeometry width="50" height="50" relative="1" as="geometry">
            <mxPoint x="550" y="604" as="sourcePoint" />
            <mxPoint x="430" y="518" as="targetPoint" />
          </mxGeometry>
        </mxCell>
        <mxCell id="nHcH9ryGmNpIAkqK_KiS-10" value="Feedback&lt;div&gt;&lt;br&gt;&lt;/div&gt;" style="edgeLabel;html=1;align=center;verticalAlign=middle;resizable=0;points=[];fontSize=12;" vertex="1" connectable="0" parent="nHcH9ryGmNpIAkqK_KiS-9">
          <mxGeometry x="-0.3252" y="1" relative="1" as="geometry">
            <mxPoint x="-43" y="13" as="offset" />
          </mxGeometry>
        </mxCell>
        <mxCell id="nHcH9ryGmNpIAkqK_KiS-11" value="" style="endArrow=block;dashed=1;html=1;rounded=0;endFill=1;startArrow=none;startFill=0;" edge="1" parent="1">
          <mxGeometry width="50" height="50" relative="1" as="geometry">
            <mxPoint x="347" y="504" as="sourcePoint" />
            <mxPoint x="242" y="504.65999999999997" as="targetPoint" />
          </mxGeometry>
        </mxCell>
        <mxCell id="nHcH9ryGmNpIAkqK_KiS-12" value="&lt;div&gt;Check&lt;/div&gt;" style="edgeLabel;html=1;align=center;verticalAlign=middle;resizable=0;points=[];fontSize=12;" vertex="1" connectable="0" parent="nHcH9ryGmNpIAkqK_KiS-11">
          <mxGeometry x="-0.3252" y="1" relative="1" as="geometry">
            <mxPoint x="-19" y="9" as="offset" />
          </mxGeometry>
        </mxCell>
        <mxCell id="nHcH9ryGmNpIAkqK_KiS-13" value="" style="endArrow=none;dashed=1;html=1;rounded=0;endFill=0;startArrow=classic;startFill=1;" edge="1" parent="1">
          <mxGeometry width="50" height="50" relative="1" as="geometry">
            <mxPoint x="349" y="464" as="sourcePoint" />
            <mxPoint x="244" y="464.6600000000001" as="targetPoint" />
          </mxGeometry>
        </mxCell>
        <mxCell id="nHcH9ryGmNpIAkqK_KiS-14" value="&lt;div&gt;Draft/ Revise&lt;/div&gt;" style="edgeLabel;html=1;align=center;verticalAlign=middle;resizable=0;points=[];fontSize=12;" vertex="1" connectable="0" parent="nHcH9ryGmNpIAkqK_KiS-13">
          <mxGeometry x="-0.3252" y="1" relative="1" as="geometry">
            <mxPoint x="-19" y="8" as="offset" />
          </mxGeometry>
        </mxCell>
        <mxCell id="nHcH9ryGmNpIAkqK_KiS-19" value="1/5" style="ellipse;whiteSpace=wrap;html=1;aspect=fixed;fillColor=#fa6800;fillStyle=solid;fontColor=#000000;strokeColor=#C73500;" vertex="1" parent="1">
          <mxGeometry x="280" y="420" width="30" height="30" as="geometry" />
        </mxCell>
        <mxCell id="nHcH9ryGmNpIAkqK_KiS-20" value="2" style="ellipse;whiteSpace=wrap;html=1;aspect=fixed;fillColor=#fa6800;fillStyle=solid;fontColor=#000000;strokeColor=#C73500;" vertex="1" parent="1">
          <mxGeometry x="481" y="432" width="30" height="30" as="geometry" />
        </mxCell>
        <mxCell id="nHcH9ryGmNpIAkqK_KiS-21" value="3" style="ellipse;whiteSpace=wrap;html=1;aspect=fixed;fillColor=#fa6800;fillStyle=solid;fontColor=#000000;strokeColor=#C73500;" vertex="1" parent="1">
          <mxGeometry x="481" y="523" width="30" height="30" as="geometry" />
        </mxCell>
        <mxCell id="nHcH9ryGmNpIAkqK_KiS-22" value="4" style="ellipse;whiteSpace=wrap;html=1;aspect=fixed;fillColor=#fa6800;fillStyle=solid;fontColor=#000000;strokeColor=#C73500;" vertex="1" parent="1">
          <mxGeometry x="280" y="530" width="30" height="30" as="geometry" />
        </mxCell>
      </root>
    </mxGraphModel>
  </diagram>
</mxfile>
